<svg xmlns="http://www.w3.org/2000/svg" viewBox="0 0 420 96" role="img" aria-label="UPRC Agent">
  <defs>
    <linearGradient id="bg" x1="0%" y1="0%" x2="100%" y2="100%">
      <stop offset="0%" stop-color="#1a1440"/>
      <stop offset="100%" stop-color="#0a1228"/>
    </linearGradient>
    <linearGradient id="shieldFill" x1="30%" y1="10%" x2="70%" y2="90%">
      <stop offset="0%" stop-color="#24306b"/>
      <stop offset="100%" stop-color="#152048"/>
    </linearGradient>
    <linearGradient id="chevron" x1="50%" y1="0%" x2="50%" y2="100%">
      <stop offset="0%" stop-color="#7df0ff"/>
      <stop offset="100%" stop-color="#22d3ee"/>
    </linearGradient>
  </defs>
  <!-- icon tile -->
  <rect x="4" y="8" width="80" height="80" rx="20" fill="url(#bg)"/>
  <path
    d="M44 20
       C54 20 63 23 67 26
       V44
       C67 60 58 70 44 76
       C30 70 21 60 21 44
       V26
       C25 23 34 20 44 20Z"
    fill="url(#shieldFill)"
    stroke="#c9a227"
    stroke-width="1.8"
  />
  <g opacity="0.4" stroke="#5b8cff" stroke-width="0.8" fill="none">
    <path d="M34 40h10l5 7-5 7H34l-5-7z"/>
    <path d="M44 32h10l5 7-5 7H44l-5-7z"/>
  </g>
  <path
    d="M33 46 L44 35 L55 46"
    fill="none"
    stroke="url(#chevron)"
    stroke-width="5"
    stroke-linecap="round"
    stroke-linejoin="round"
  />
  <!-- wordmark: exact product name -->
  <text
    x="104"
    y="48"
    fill="#f4f7ff"
    font-family="Inter, ui-sans-serif, system-ui, -apple-system, Segoe UI, Roboto, Helvetica, Arial, sans-serif"
    font-size="28"
    font-weight="700"
    letter-spacing="0.5"
  >UPRC Agent</text>
  <text
    x="104"
    y="72"
    fill="#8ea0c7"
    font-family="Inter, ui-sans-serif, system-ui, -apple-system, Segoe UI, Roboto, Helvetica, Arial, sans-serif"
    font-size="13"
    font-weight="500"
    letter-spacing="1.2"
  >Risk Control · AI Runtime</text>
</svg>
